<svg width="24" height="24" viewBox="0 0 24 24" fill="none" xmlns="http://www.w3.org/2000/svg">
<rect width="24" height="24" fill="#A99176"/>
<g clip-path="url(#clip0_0_1)">
<rect width="1440" height="780" transform="translate(-1014 -174)" fill="#F9F9F9"/>
<g clip-path="url(#clip1_0_1)">
<circle cx="-294" cy="-1148" r="1440" fill="#FFAB08"/>
</g>
<path d="M-293.15 -4.55C-294.417 -4.55 -295.383 -4.9 -296.05 -5.6C-296.717 -6.3 -297.05 -7.28333 -297.05 -8.55V-33.85H-305.9C-306.933 -33.85 -307.733 -34.1333 -308.3 -34.7C-308.867 -35.2667 -309.15 -36.05 -309.15 -37.05C-309.15 -38.0833 -308.867 -38.8667 -308.3 -39.4C-307.733 -39.9667 -306.933 -40.25 -305.9 -40.25H-280.45C-279.417 -40.25 -278.617 -39.9667 -278.05 -39.4C-277.483 -38.8667 -277.2 -38.0833 -277.2 -37.05C-277.2 -36.05 -277.483 -35.2667 -278.05 -34.7C-278.617 -34.1333 -279.417 -33.85 -280.45 -33.85H-289.3V-8.55C-289.3 -7.28333 -289.633 -6.3 -290.3 -5.6C-290.933 -4.9 -291.883 -4.55 -293.15 -4.55ZM-266.263 -4.45C-268.897 -4.45 -271.197 -4.96667 -273.163 -6C-275.097 -7.03333 -276.597 -8.51667 -277.663 -10.45C-278.73 -12.3833 -279.263 -14.6667 -279.263 -17.3C-279.263 -19.2667 -278.963 -21.0333 -278.363 -22.6C-277.763 -24.1667 -276.897 -25.5 -275.763 -26.6C-274.597 -27.7333 -273.213 -28.5833 -271.613 -29.15C-270.013 -29.75 -268.23 -30.05 -266.263 -30.05C-263.63 -30.05 -261.347 -29.5333 -259.413 -28.5C-257.447 -27.4667 -255.93 -26 -254.863 -24.1C-253.763 -22.2 -253.213 -19.9333 -253.213 -17.3C-253.213 -15.3 -253.53 -13.5167 -254.163 -11.95C-254.763 -10.3833 -255.63 -9.03333 -256.763 -7.9C-257.897 -6.76667 -259.28 -5.9 -260.913 -5.3C-262.513 -4.73333 -264.297 -4.45 -266.263 -4.45ZM-266.263 -10.1C-265.163 -10.1 -264.213 -10.3667 -263.413 -10.9C-262.613 -11.4333 -261.98 -12.2167 -261.513 -13.25C-261.047 -14.3167 -260.813 -15.6667 -260.813 -17.3C-260.813 -19.7333 -261.313 -21.5167 -262.313 -22.65C-263.313 -23.8167 -264.63 -24.4 -266.263 -24.4C-267.33 -24.4 -268.28 -24.15 -269.113 -23.65C-269.913 -23.15 -270.547 -22.3667 -271.013 -21.3C-271.447 -20.2667 -271.663 -18.9333 -271.663 -17.3C-271.663 -14.8667 -271.163 -13.05 -270.163 -11.85C-269.163 -10.6833 -267.863 -10.1 -266.263 -10.1ZM-228.226 -4.55C-229.459 -4.55 -230.409 -4.88333 -231.076 -5.55C-231.709 -6.21667 -232.026 -7.16667 -232.026 -8.4V-23.7H-238.426V-20.95C-238.426 -18.8167 -238.576 -16.8833 -238.876 -15.15C-239.176 -13.4167 -239.626 -11.8833 -240.226 -10.55C-240.826 -9.21667 -241.592 -8.08333 -242.526 -7.15C-243.459 -6.25 -244.576 -5.53333 -245.876 -5C-246.742 -4.63333 -247.526 -4.53333 -248.226 -4.7C-248.926 -4.86667 -249.509 -5.18333 -249.976 -5.65C-250.409 -6.11667 -250.692 -6.66667 -250.826 -7.3C-250.926 -7.96667 -250.842 -8.61667 -250.576 -9.25C-250.276 -9.91667 -249.742 -10.4833 -248.976 -10.95C-248.242 -11.35 -247.642 -11.8667 -247.176 -12.5C-246.709 -13.1333 -246.342 -13.8833 -246.076 -14.75C-245.809 -15.6167 -245.626 -16.5667 -245.526 -17.6C-245.392 -18.6667 -245.326 -19.8667 -245.326 -21.2V-25.3C-245.326 -26.6667 -244.976 -27.7167 -244.276 -28.45C-243.542 -29.1833 -242.492 -29.55 -241.126 -29.55H-228.676C-227.309 -29.55 -226.276 -29.1833 -225.576 -28.45C-224.842 -27.7167 -224.476 -26.6667 -224.476 -25.3V-8.4C-224.476 -7.16667 -224.809 -6.21667 -225.476 -5.55C-226.109 -4.88333 -227.026 -4.55 -228.226 -4.55ZM-214.208 -5C-215.375 -5 -216.275 -5.31667 -216.908 -5.95C-217.542 -6.58333 -217.858 -7.5 -217.858 -8.7V-26.15C-217.858 -27.4167 -217.542 -28.3667 -216.908 -29C-216.242 -29.6333 -215.292 -29.95 -214.058 -29.95C-212.858 -29.95 -211.942 -29.6333 -211.308 -29C-210.642 -28.3667 -210.308 -27.4167 -210.308 -26.15V-21.75H-204.408C-201.108 -21.75 -198.625 -21.05 -196.958 -19.65C-195.258 -18.2833 -194.408 -16.25 -194.408 -13.55C-194.408 -11.85 -194.825 -10.35 -195.658 -9.05C-196.492 -7.78333 -197.658 -6.78333 -199.158 -6.05C-200.625 -5.35 -202.375 -5 -204.408 -5H-214.208ZM-210.308 -9.85H-205.708C-204.342 -9.85 -203.275 -10.15 -202.508 -10.75C-201.708 -11.35 -201.308 -12.25 -201.308 -13.45C-201.308 -14.65 -201.692 -15.5333 -202.458 -16.1C-203.225 -16.6667 -204.308 -16.95 -205.708 -16.95H-210.308V-9.85ZM-185.884 -4.55C-187.118 -4.55 -188.068 -4.88333 -188.734 -5.55C-189.368 -6.21667 -189.684 -7.16667 -189.684 -8.4V-26.1C-189.684 -27.3333 -189.368 -28.2833 -188.734 -28.95C-188.068 -29.6167 -187.118 -29.95 -185.884 -29.95C-184.684 -29.95 -183.768 -29.6167 -183.134 -28.95C-182.468 -28.2833 -182.134 -27.3333 -182.134 -26.1V-20.4H-179.184L-173.584 -28.2C-173.051 -28.9667 -172.434 -29.4667 -171.734 -29.7C-171.001 -29.9333 -170.301 -29.95 -169.634 -29.75C-168.968 -29.55 -168.418 -29.1833 -167.984 -28.65C-167.551 -28.15 -167.318 -27.55 -167.284 -26.85C-167.218 -26.15 -167.468 -25.4 -168.034 -24.6L-173.434 -17L-174.934 -19.45C-174.034 -19.35 -173.218 -19.0833 -172.484 -18.65C-171.751 -18.2167 -171.084 -17.65 -170.484 -16.95C-169.884 -16.2833 -169.318 -15.4667 -168.784 -14.5L-166.134 -9.65C-165.668 -8.81667 -165.518 -8.03333 -165.684 -7.3C-165.818 -6.6 -166.168 -6.01667 -166.734 -5.55C-167.268 -5.08333 -167.901 -4.8 -168.634 -4.7C-169.368 -4.56667 -170.084 -4.65 -170.784 -4.95C-171.484 -5.25 -172.068 -5.83333 -172.534 -6.7L-175.584 -12.1C-175.918 -12.7667 -176.268 -13.2833 -176.634 -13.65C-177.001 -14.0167 -177.418 -14.2667 -177.884 -14.4C-178.318 -14.5333 -178.834 -14.6 -179.434 -14.6H-182.134V-8.4C-182.134 -7.16667 -182.468 -6.21667 -183.134 -5.55C-183.768 -4.88333 -184.684 -4.55 -185.884 -4.55ZM-148.929 -4.45C-151.563 -4.45 -153.863 -4.96667 -155.829 -6C-157.763 -7.03333 -159.263 -8.51667 -160.329 -10.45C-161.396 -12.3833 -161.929 -14.6667 -161.929 -17.3C-161.929 -19.2667 -161.629 -21.0333 -161.029 -22.6C-160.429 -24.1667 -159.563 -25.5 -158.429 -26.6C-157.263 -27.7333 -155.879 -28.5833 -154.279 -29.15C-152.679 -29.75 -150.896 -30.05 -148.929 -30.05C-146.296 -30.05 -144.013 -29.5333 -142.079 -28.5C-140.113 -27.4667 -138.596 -26 -137.529 -24.1C-136.429 -22.2 -135.879 -19.9333 -135.879 -17.3C-135.879 -15.3 -136.196 -13.5167 -136.829 -11.95C-137.429 -10.3833 -138.296 -9.03333 -139.429 -7.9C-140.563 -6.76667 -141.946 -5.9 -143.579 -5.3C-145.179 -4.73333 -146.963 -4.45 -148.929 -4.45ZM-148.929 -10.1C-147.829 -10.1 -146.879 -10.3667 -146.079 -10.9C-145.279 -11.4333 -144.646 -12.2167 -144.179 -13.25C-143.713 -14.3167 -143.479 -15.6667 -143.479 -17.3C-143.479 -19.7333 -143.979 -21.5167 -144.979 -22.65C-145.979 -23.8167 -147.296 -24.4 -148.929 -24.4C-149.996 -24.4 -150.946 -24.15 -151.779 -23.65C-152.579 -23.15 -153.213 -22.3667 -153.679 -21.3C-154.113 -20.2667 -154.329 -18.9333 -154.329 -17.3C-154.329 -14.8667 -153.829 -13.05 -152.829 -11.85C-151.829 -10.6833 -150.529 -10.1 -148.929 -10.1ZM-104.639 -4.45C-107.305 -4.45 -109.639 -4.96667 -111.639 -6C-113.605 -7.06667 -115.122 -8.56667 -116.189 -10.5C-117.255 -12.4333 -117.789 -14.7167 -117.789 -17.35C-117.789 -19.3167 -117.489 -21.0833 -116.889 -22.65C-116.289 -24.2167 -115.422 -25.55 -114.289 -26.65C-113.122 -27.75 -111.722 -28.5833 -110.089 -29.15C-108.455 -29.75 -106.639 -30.05 -104.639 -30.05C-103.605 -30.05 -102.505 -29.9167 -101.339 -29.65C-100.172 -29.4167 -99.022 -29 -97.8887 -28.4C-97.222 -28.1 -96.772 -27.6667 -96.5387 -27.1C-96.272 -26.5667 -96.172 -26 -96.2387 -25.4C-96.3053 -24.8333 -96.522 -24.3167 -96.8887 -23.85C-97.222 -23.4167 -97.6553 -23.1167 -98.1887 -22.95C-98.722 -22.8167 -99.322 -22.9167 -99.9887 -23.25C-100.622 -23.6167 -101.289 -23.8833 -101.989 -24.05C-102.655 -24.2167 -103.289 -24.3 -103.889 -24.3C-104.889 -24.3 -105.772 -24.1333 -106.539 -23.8C-107.305 -23.5 -107.955 -23.05 -108.489 -22.45C-108.989 -21.8833 -109.389 -21.1667 -109.689 -20.3C-109.955 -19.4333 -110.089 -18.4333 -110.089 -17.3C-110.089 -15.1 -109.555 -13.3667 -108.489 -12.1C-107.389 -10.8667 -105.855 -10.25 -103.889 -10.25C-103.289 -10.25 -102.655 -10.3167 -101.989 -10.45C-101.322 -10.6167 -100.655 -10.8833 -99.9887 -11.25C-99.322 -11.5833 -98.722 -11.6667 -98.1887 -11.5C-97.6553 -11.3333 -97.2387 -11.0167 -96.9387 -10.55C-96.6053 -10.1167 -96.422 -9.6 -96.3887 -9C-96.322 -8.43333 -96.422 -7.86667 -96.6887 -7.3C-96.922 -6.76667 -97.3553 -6.35 -97.9887 -6.05C-99.122 -5.48333 -100.255 -5.08333 -101.389 -4.85C-102.522 -4.58333 -103.605 -4.45 -104.639 -4.45ZM-83.5816 -4.45C-85.3816 -4.45 -86.9983 -4.8 -88.4316 -5.5C-89.865 -6.2 -90.9816 -7.15 -91.7816 -8.35C-92.5816 -9.55 -92.9816 -10.9 -92.9816 -12.4C-92.9816 -14.2 -92.515 -15.6167 -91.5816 -16.65C-90.6483 -17.7167 -89.1316 -18.4667 -87.0316 -18.9C-84.9316 -19.3667 -82.1483 -19.6 -78.6816 -19.6H-76.0316V-15.7H-78.6316C-80.3316 -15.7 -81.715 -15.6 -82.7816 -15.4C-83.815 -15.2333 -84.565 -14.9333 -85.0316 -14.5C-85.465 -14.0667 -85.6816 -13.4667 -85.6816 -12.7C-85.6816 -11.7667 -85.365 -11 -84.7316 -10.4C-84.065 -9.8 -83.115 -9.5 -81.8816 -9.5C-80.915 -9.5 -80.065 -9.71667 -79.3316 -10.15C-78.565 -10.6167 -77.965 -11.2333 -77.5316 -12C-77.0983 -12.8 -76.8816 -13.7 -76.8816 -14.7V-20.45C-76.8816 -21.9167 -77.215 -22.95 -77.8816 -23.55C-78.5483 -24.1833 -79.6816 -24.5 -81.2816 -24.5C-82.1816 -24.5 -83.165 -24.3833 -84.2316 -24.15C-85.265 -23.95 -86.415 -23.6 -87.6816 -23.1C-88.415 -22.7667 -89.065 -22.6833 -89.6316 -22.85C-90.1983 -23.05 -90.6316 -23.3833 -90.9316 -23.85C-91.2316 -24.35 -91.3816 -24.8833 -91.3816 -25.45C-91.3816 -26.05 -91.215 -26.6167 -90.8816 -27.15C-90.5483 -27.7167 -89.9983 -28.1333 -89.2316 -28.4C-87.665 -29.0333 -86.1983 -29.4667 -84.8316 -29.7C-83.4316 -29.9333 -82.1483 -30.05 -80.9816 -30.05C-78.415 -30.05 -76.315 -29.6667 -74.6816 -28.9C-73.015 -28.1667 -71.765 -27.0167 -70.9316 -25.45C-70.0983 -23.9167 -69.6816 -21.9333 -69.6816 -19.5V-8.4C-69.6816 -7.16667 -69.9816 -6.21667 -70.5816 -5.55C-71.1816 -4.88333 -72.0483 -4.55 -73.1816 -4.55C-74.315 -4.55 -75.1983 -4.88333 -75.8316 -5.55C-76.4316 -6.21667 -76.7316 -7.16667 -76.7316 -8.4V-10.25L-76.3816 -9.95C-76.5816 -8.81667 -77.015 -7.83333 -77.6816 -7C-78.315 -6.2 -79.1316 -5.56667 -80.1316 -5.1C-81.1316 -4.66667 -82.2816 -4.45 -83.5816 -4.45ZM-59.9195 -4.55C-60.9862 -4.55 -61.8029 -4.85 -62.3695 -5.45C-62.9362 -6.08333 -63.2195 -6.96667 -63.2195 -8.1V-25.8C-63.2195 -26.7 -63.1029 -27.45 -62.8695 -28.05C-62.6362 -28.6833 -62.2529 -29.15 -61.7195 -29.45C-61.1862 -29.7833 -60.5362 -29.95 -59.7695 -29.95C-59.0362 -29.95 -58.4195 -29.8333 -57.9195 -29.6C-57.4195 -29.3667 -56.9862 -29.05 -56.6195 -28.65C-56.2529 -28.25 -55.9195 -27.7833 -55.6195 -27.25L-48.9695 -16.15L-42.3695 -27.2C-42.1029 -27.7 -41.8029 -28.15 -41.4695 -28.55C-41.1029 -28.95 -40.6695 -29.2833 -40.1695 -29.55C-39.6362 -29.8167 -39.0029 -29.95 -38.2695 -29.95C-37.0695 -29.95 -36.1862 -29.5833 -35.6195 -28.85C-35.0529 -28.15 -34.7695 -27.1333 -34.7695 -25.8V-8.1C-34.7695 -6.96667 -35.0529 -6.08333 -35.6195 -5.45C-36.1862 -4.85 -37.0195 -4.55 -38.1195 -4.55C-39.1529 -4.55 -39.9695 -4.85 -40.5695 -5.45C-41.1362 -6.08333 -41.4195 -6.96667 -41.4195 -8.1V-20.8H-40.1695L-46.4695 -10.3C-46.7029 -9.93333 -47.0029 -9.58333 -47.3695 -9.25C-47.7362 -8.91667 -48.2695 -8.75 -48.9695 -8.75C-49.6695 -8.75 -50.2029 -8.91667 -50.5695 -9.25C-50.9362 -9.58333 -51.2529 -9.93333 -51.5195 -10.3L-57.8695 -20.8H-56.6195V-8.1C-56.6195 -6.96667 -56.9029 -6.08333 -57.4695 -5.45C-58.0362 -4.85 -58.8529 -4.55 -59.9195 -4.55ZM-24.5598 -5C-25.7264 -5 -26.6264 -5.31667 -27.2598 -5.95C-27.8931 -6.58333 -28.2098 -7.5 -28.2098 -8.7V-26.15C-28.2098 -27.4167 -27.8931 -28.3667 -27.2598 -29C-26.5931 -29.6333 -25.6431 -29.95 -24.4098 -29.95C-23.2098 -29.95 -22.2931 -29.6333 -21.6598 -29C-20.9931 -28.3667 -20.6598 -27.4167 -20.6598 -26.15V-21.75H-14.7598C-11.4598 -21.75 -8.97643 -21.05 -7.30976 -19.65C-5.60976 -18.2833 -4.75976 -16.25 -4.75976 -13.55C-4.75976 -11.85 -5.17643 -10.35 -6.00976 -9.05C-6.8431 -7.78333 -8.00976 -6.78333 -9.50976 -6.05C-10.9764 -5.35 -12.7264 -5 -14.7598 -5H-24.5598ZM-20.6598 -9.85H-16.0598C-14.6931 -9.85 -13.6264 -10.15 -12.8598 -10.75C-12.0598 -11.35 -11.6598 -12.25 -11.6598 -13.45C-11.6598 -14.65 -12.0431 -15.5333 -12.8098 -16.1C-13.5764 -16.6667 -14.6598 -16.95 -16.0598 -16.95H-20.6598V-9.85ZM1.54024 -4.55C0.340235 -4.55 -0.593099 -4.88333 -1.25976 -5.55C-1.8931 -6.21667 -2.20976 -7.16667 -2.20976 -8.4V-26.15C-2.20976 -27.4167 -1.8931 -28.3667 -1.25976 -29C-0.593099 -29.6333 0.340235 -29.95 1.54024 -29.95C2.77357 -29.95 3.7069 -29.6333 4.34023 -29C5.0069 -28.3667 5.34024 -27.4167 5.34024 -26.15V-8.4C5.34024 -5.83333 4.07357 -4.55 1.54024 -4.55ZM24.677 -4.45C21.777 -4.45 19.277 -4.96667 17.177 -6C15.1103 -7.06667 13.5103 -8.55 12.377 -10.45C11.277 -12.3833 10.727 -14.65 10.727 -17.25C10.727 -19.7833 11.2603 -22 12.327 -23.9C13.3936 -25.8333 14.877 -27.3333 16.777 -28.4C18.7103 -29.5 20.8936 -30.05 23.327 -30.05C25.0936 -30.05 26.6936 -29.75 28.127 -29.15C29.5603 -28.5833 30.7936 -27.75 31.827 -26.65C32.8603 -25.5833 33.6436 -24.2667 34.177 -22.7C34.7103 -21.1667 34.977 -19.45 34.977 -17.55C34.977 -16.9167 34.777 -16.4333 34.377 -16.1C33.977 -15.8 33.3936 -15.65 32.627 -15.65H16.927V-19.55H29.527L28.727 -18.85C28.727 -20.2167 28.527 -21.35 28.127 -22.25C27.727 -23.1833 27.1436 -23.8833 26.377 -24.35C25.6436 -24.8167 24.727 -25.05 23.627 -25.05C22.3936 -25.05 21.3436 -24.7667 20.477 -24.2C19.6103 -23.6333 18.9436 -22.8167 18.477 -21.75C18.0103 -20.6833 17.777 -19.4 17.777 -17.9V-17.5C17.777 -14.9667 18.3603 -13.1 19.527 -11.9C20.727 -10.7 22.4936 -10.1 24.827 -10.1C25.627 -10.1 26.5436 -10.2 27.577 -10.4C28.6103 -10.6 29.577 -10.9167 30.477 -11.35C31.2436 -11.7167 31.927 -11.8333 32.527 -11.7C33.127 -11.6 33.5936 -11.3333 33.927 -10.9C34.2603 -10.4667 34.4436 -9.96667 34.477 -9.4C34.5436 -8.83333 34.427 -8.26667 34.127 -7.7C33.827 -7.16667 33.327 -6.71667 32.627 -6.35C31.4936 -5.71667 30.2103 -5.25 28.777 -4.95C27.377 -4.61667 26.0103 -4.45 24.677 -4.45Z" fill="white"/>
<path d="M-293.75 55.55C-296.417 55.55 -298.75 55.0333 -300.75 54C-302.717 52.9333 -304.233 51.4333 -305.3 49.5C-306.367 47.5667 -306.9 45.2833 -306.9 42.65C-306.9 40.6833 -306.6 38.9167 -306 37.35C-305.4 35.7833 -304.533 34.45 -303.4 33.35C-302.233 32.25 -300.833 31.4167 -299.2 30.85C-297.567 30.25 -295.75 29.95 -293.75 29.95C-292.717 29.95 -291.617 30.0833 -290.45 30.35C-289.283 30.5833 -288.133 31 -287 31.6C-286.333 31.9 -285.883 32.3333 -285.65 32.9C-285.383 33.4333 -285.283 34 -285.35 34.6C-285.417 35.1667 -285.633 35.6833 -286 36.15C-286.333 36.5833 -286.767 36.8833 -287.3 37.05C-287.833 37.1833 -288.433 37.0833 -289.1 36.75C-289.733 36.3833 -290.4 36.1167 -291.1 35.95C-291.767 35.7833 -292.4 35.7 -293 35.7C-294 35.7 -294.883 35.8667 -295.65 36.2C-296.417 36.5 -297.067 36.95 -297.6 37.55C-298.1 38.1167 -298.5 38.8333 -298.8 39.7C-299.067 40.5667 -299.2 41.5667 -299.2 42.7C-299.2 44.9 -298.667 46.6333 -297.6 47.9C-296.5 49.1333 -294.967 49.75 -293 49.75C-292.4 49.75 -291.767 49.6833 -291.1 49.55C-290.433 49.3833 -289.767 49.1167 -289.1 48.75C-288.433 48.4167 -287.833 48.3333 -287.3 48.5C-286.767 48.6667 -286.35 48.9833 -286.05 49.45C-285.717 49.8833 -285.533 50.4 -285.5 51C-285.433 51.5667 -285.533 52.1333 -285.8 52.7C-286.033 53.2333 -286.467 53.65 -287.1 53.95C-288.233 54.5167 -289.367 54.9167 -290.5 55.15C-291.633 55.4167 -292.717 55.55 -293.75 55.55ZM-269.193 55.55C-271.826 55.55 -274.126 55.0333 -276.093 54C-278.026 52.9667 -279.526 51.4833 -280.593 49.55C-281.66 47.6167 -282.193 45.3333 -282.193 42.7C-282.193 40.7333 -281.893 38.9667 -281.293 37.4C-280.693 35.8333 -279.826 34.5 -278.693 33.4C-277.526 32.2667 -276.143 31.4167 -274.543 30.85C-272.943 30.25 -271.16 29.95 -269.193 29.95C-266.56 29.95 -264.276 30.4667 -262.343 31.5C-260.376 32.5333 -258.86 34 -257.793 35.9C-256.693 37.8 -256.143 40.0667 -256.143 42.7C-256.143 44.7 -256.46 46.4833 -257.093 48.05C-257.693 49.6167 -258.56 50.9667 -259.693 52.1C-260.826 53.2333 -262.21 54.1 -263.843 54.7C-265.443 55.2667 -267.226 55.55 -269.193 55.55ZM-269.193 49.9C-268.093 49.9 -267.143 49.6333 -266.343 49.1C-265.543 48.5667 -264.91 47.7833 -264.443 46.75C-263.976 45.6833 -263.743 44.3333 -263.743 42.7C-263.743 40.2667 -264.243 38.4833 -265.243 37.35C-266.243 36.1833 -267.56 35.6 -269.193 35.6C-270.26 35.6 -271.21 35.85 -272.043 36.35C-272.843 36.85 -273.476 37.6333 -273.943 38.7C-274.376 39.7333 -274.593 41.0667 -274.593 42.7C-274.593 45.1333 -274.093 46.95 -273.093 48.15C-272.093 49.3167 -270.793 49.9 -269.193 49.9ZM-231.767 55.45C-232.967 55.45 -233.884 55.1 -234.517 54.4C-235.151 53.7 -235.467 52.7 -235.467 51.4V46.75C-236.334 47.1167 -237.217 47.3833 -238.117 47.55C-238.984 47.7167 -239.851 47.8 -240.717 47.8C-244.451 47.8 -247.234 46.9 -249.067 45.1C-250.901 43.2667 -251.817 40.55 -251.817 36.95V33.85C-251.817 32.6167 -251.501 31.6833 -250.867 31.05C-250.201 30.3833 -249.267 30.05 -248.067 30.05C-246.867 30.05 -245.934 30.3833 -245.267 31.05C-244.601 31.6833 -244.267 32.6167 -244.267 33.85V36.25C-244.267 38.1833 -243.901 39.5833 -243.167 40.45C-242.401 41.3167 -241.101 41.75 -239.267 41.75C-238.567 41.75 -237.917 41.6833 -237.317 41.55C-236.684 41.3833 -236.117 41.1333 -235.617 40.8V34.05C-235.617 31.3833 -234.351 30.05 -231.817 30.05C-230.551 30.05 -229.617 30.4 -229.017 31.1C-228.384 31.7667 -228.067 32.75 -228.067 34.05V51.4C-228.067 52.7 -228.367 53.7 -228.967 54.4C-229.567 55.1 -230.501 55.45 -231.767 55.45ZM-217.671 55.45C-218.905 55.45 -219.855 55.1167 -220.521 54.45C-221.155 53.7833 -221.471 52.8333 -221.471 51.6V33.85C-221.471 32.5833 -221.155 31.6333 -220.521 31C-219.855 30.3667 -218.905 30.05 -217.671 30.05C-216.471 30.05 -215.555 30.3667 -214.921 31C-214.255 31.6333 -213.921 32.5833 -213.921 33.85V39.55H-204.571V33.85C-204.571 32.5833 -204.255 31.6333 -203.621 31C-202.988 30.3667 -202.055 30.05 -200.821 30.05C-199.621 30.05 -198.688 30.3667 -198.021 31C-197.355 31.6333 -197.021 32.5833 -197.021 33.85V51.6C-197.021 52.8333 -197.355 53.7833 -198.021 54.45C-198.688 55.1167 -199.621 55.45 -200.821 55.45C-202.055 55.45 -202.988 55.1167 -203.621 54.45C-204.255 53.7833 -204.571 52.8333 -204.571 51.6V45.4H-213.921V51.6C-213.921 52.8333 -214.238 53.7833 -214.871 54.45C-215.505 55.1167 -216.438 55.45 -217.671 55.45ZM-186.816 55C-187.982 55 -188.882 54.6833 -189.516 54.05C-190.149 53.4167 -190.466 52.5 -190.466 51.3V33.85C-190.466 32.5833 -190.149 31.6333 -189.516 31C-188.849 30.3667 -187.899 30.05 -186.666 30.05C-185.466 30.05 -184.549 30.3667 -183.916 31C-183.249 31.6333 -182.916 32.5833 -182.916 33.85V38.25H-177.016C-173.716 38.25 -171.232 38.95 -169.566 40.35C-167.866 41.7167 -167.016 43.75 -167.016 46.45C-167.016 48.15 -167.432 49.65 -168.266 50.95C-169.099 52.2167 -170.266 53.2167 -171.766 53.95C-173.232 54.65 -174.982 55 -177.016 55H-186.816ZM-182.916 50.15H-178.316C-176.949 50.15 -175.882 49.85 -175.116 49.25C-174.316 48.65 -173.916 47.75 -173.916 46.55C-173.916 45.35 -174.299 44.4667 -175.066 43.9C-175.832 43.3333 -176.916 43.05 -178.316 43.05H-182.916V50.15ZM-160.716 55.45C-161.916 55.45 -162.849 55.1167 -163.516 54.45C-164.149 53.7833 -164.466 52.8333 -164.466 51.6V33.85C-164.466 32.5833 -164.149 31.6333 -163.516 31C-162.849 30.3667 -161.916 30.05 -160.716 30.05C-159.482 30.05 -158.549 30.3667 -157.916 31C-157.249 31.6333 -156.916 32.5833 -156.916 33.85V51.6C-156.916 54.1667 -158.182 55.45 -160.716 55.45ZM-137.579 55.55C-140.479 55.55 -142.979 55.0333 -145.079 54C-147.146 52.9333 -148.746 51.45 -149.879 49.55C-150.979 47.6167 -151.529 45.35 -151.529 42.75C-151.529 40.2167 -150.996 38 -149.929 36.1C-148.862 34.1667 -147.379 32.6667 -145.479 31.6C-143.546 30.5 -141.362 29.95 -138.929 29.95C-137.162 29.95 -135.562 30.25 -134.129 30.85C-132.696 31.4167 -131.462 32.25 -130.429 33.35C-129.396 34.4167 -128.612 35.7333 -128.079 37.3C-127.546 38.8333 -127.279 40.55 -127.279 42.45C-127.279 43.0833 -127.479 43.5667 -127.879 43.9C-128.279 44.2 -128.862 44.35 -129.629 44.35H-145.329V40.45H-132.729L-133.529 41.15C-133.529 39.7833 -133.729 38.65 -134.129 37.75C-134.529 36.8167 -135.112 36.1167 -135.879 35.65C-136.612 35.1833 -137.529 34.95 -138.629 34.95C-139.862 34.95 -140.912 35.2333 -141.779 35.8C-142.646 36.3667 -143.312 37.1833 -143.779 38.25C-144.246 39.3167 -144.479 40.6 -144.479 42.1V42.5C-144.479 45.0333 -143.896 46.9 -142.729 48.1C-141.529 49.3 -139.762 49.9 -137.429 49.9C-136.629 49.9 -135.712 49.8 -134.679 49.6C-133.646 49.4 -132.679 49.0833 -131.779 48.65C-131.012 48.2833 -130.329 48.1667 -129.729 48.3C-129.129 48.4 -128.662 48.6667 -128.329 49.1C-127.996 49.5333 -127.812 50.0333 -127.779 50.6C-127.712 51.1667 -127.829 51.7333 -128.129 52.3C-128.429 52.8333 -128.929 53.2833 -129.629 53.65C-130.762 54.2833 -132.046 54.75 -133.479 55.05C-134.879 55.3833 -136.246 55.55 -137.579 55.55ZM-96.0414 55.55C-98.7414 55.55 -101.091 55.0167 -103.091 53.95C-105.091 52.85 -106.641 51.2333 -107.741 49.1C-108.808 46.9333 -109.341 44.2667 -109.341 41.1V37.55C-109.341 34.2167 -108.825 31.4333 -107.791 29.2C-106.725 26.9333 -105.158 25.1167 -103.091 23.75C-101.025 22.3833 -98.4747 21.3667 -95.4414 20.7L-89.4414 19.3C-88.4081 19.0667 -87.5414 19.15 -86.8414 19.55C-86.1414 19.9167 -85.6914 20.6 -85.4914 21.6C-85.2914 22.6 -85.4581 23.4333 -85.9914 24.1C-86.4914 24.7667 -87.2581 25.2 -88.2914 25.4L-94.8914 26.85C-96.4914 27.2167 -97.8414 27.7833 -98.9414 28.55C-100.041 29.3167 -100.875 30.2833 -101.441 31.45C-102.008 32.5833 -102.291 33.9333 -102.291 35.5V38.6H-103.241C-102.941 37.2 -102.408 35.9167 -101.641 34.75C-100.841 33.5833 -99.7914 32.6667 -98.4914 32C-97.1581 31.3 -95.5914 30.95 -93.7914 30.95C-91.7581 30.95 -89.9581 31.4333 -88.3914 32.4C-86.8247 33.3667 -85.5914 34.75 -84.6914 36.55C-83.7581 38.3167 -83.2914 40.4333 -83.2914 42.9C-83.2914 45.4667 -83.8247 47.7 -84.8914 49.6C-85.9581 51.5 -87.4414 52.9667 -89.3414 54C-91.2414 55.0333 -93.4747 55.55 -96.0414 55.55ZM-96.2914 49.9C-95.1247 49.9 -94.1414 49.65 -93.3414 49.15C-92.5414 48.6167 -91.9414 47.8667 -91.5414 46.9C-91.1081 45.9 -90.8914 44.6833 -90.8914 43.25C-90.8914 41.0833 -91.3747 39.4333 -92.3414 38.3C-93.2747 37.1333 -94.6081 36.55 -96.3414 36.55C-97.4747 36.55 -98.4581 36.8167 -99.2914 37.35C-100.091 37.85 -100.708 38.5833 -101.141 39.55C-101.541 40.5167 -101.741 41.6833 -101.741 43.05C-101.741 45.2833 -101.275 46.9833 -100.341 48.15C-99.4081 49.3167 -98.0581 49.9 -96.2914 49.9ZM-71.7051 64.45C-72.5717 64.45 -73.2884 64.2167 -73.8551 63.75C-74.4217 63.2833 -74.7551 62.6667 -74.8551 61.9C-74.9551 61.1667 -74.8217 60.3833 -74.4551 59.55L-71.1051 52.15V55.25L-79.9551 34.95C-80.2884 34.0833 -80.4051 33.2833 -80.3051 32.55C-80.1717 31.7833 -79.8051 31.1833 -79.2051 30.75C-78.5717 30.2833 -77.7051 30.05 -76.6051 30.05C-75.7051 30.05 -74.9884 30.2667 -74.4551 30.7C-73.8884 31.1 -73.3717 31.8833 -72.9051 33.05L-67.0051 48.05H-68.6051L-62.5051 33C-62.0384 31.8667 -61.5217 31.1 -60.9551 30.7C-60.3551 30.2667 -59.5551 30.05 -58.5551 30.05C-57.6884 30.05 -57.0051 30.2833 -56.5051 30.75C-55.9717 31.1833 -55.6551 31.7667 -55.5551 32.5C-55.4217 33.2333 -55.5551 34.0333 -55.9551 34.9L-67.7051 61.55C-68.2051 62.6833 -68.7717 63.45 -69.4051 63.85C-70.0051 64.25 -70.7717 64.45 -71.7051 64.45ZM-47.1637 64.45C-48.397 64.45 -49.347 64.1167 -50.0137 63.45C-50.647 62.8167 -50.9637 61.8667 -50.9637 60.6V33.85C-50.9637 32.6167 -50.647 31.6833 -50.0137 31.05C-49.347 30.3833 -48.4303 30.05 -47.2637 30.05C-46.0303 30.05 -45.097 30.3833 -44.4637 31.05C-43.8303 31.6833 -43.5137 32.6167 -43.5137 33.85V37.25L-44.0637 35.3C-43.5637 33.7 -42.5637 32.4167 -41.0637 31.45C-39.5303 30.45 -37.7803 29.95 -35.8137 29.95C-33.6803 29.95 -31.8137 30.4667 -30.2137 31.5C-28.5803 32.5333 -27.3137 34 -26.4137 35.9C-25.5137 37.8 -25.0637 40.0667 -25.0637 42.7C-25.0637 45.3333 -25.5137 47.6167 -26.4137 49.55C-27.3137 51.4833 -28.5637 52.9667 -30.1637 54C-31.7637 55.0333 -33.647 55.55 -35.8137 55.55C-37.747 55.55 -39.4637 55.0833 -40.9637 54.15C-42.4637 53.1833 -43.4803 51.9333 -44.0137 50.4H-43.4137V60.6C-43.4137 61.8667 -43.747 62.8167 -44.4137 63.45C-45.047 64.1167 -45.9637 64.45 -47.1637 64.45ZM-38.0637 49.9C-36.997 49.9 -36.0637 49.6333 -35.2637 49.1C-34.4303 48.5667 -33.797 47.7833 -33.3637 46.75C-32.897 45.6833 -32.6637 44.3333 -32.6637 42.7C-32.6637 40.2667 -33.1637 38.4833 -34.1637 37.35C-35.1637 36.1833 -36.4637 35.6 -38.0637 35.6C-39.1303 35.6 -40.0803 35.85 -40.9137 36.35C-41.7137 36.85 -42.347 37.6333 -42.8137 38.7C-43.2803 39.7333 -43.5137 41.0667 -43.5137 42.7C-43.5137 45.1333 -43.0137 46.95 -42.0137 48.15C-41.0137 49.3167 -39.697 49.9 -38.0637 49.9ZM-15.8648 55.45C-17.0982 55.45 -18.0482 55.1167 -18.7148 54.45C-19.3482 53.75 -19.6648 52.7833 -19.6648 51.55V34.7C-19.6648 33.3333 -19.3148 32.2833 -18.6148 31.55C-17.8815 30.8167 -16.8315 30.45 -15.4648 30.45H-3.01484C-1.98151 30.45 -1.19818 30.7 -0.664843 31.2C-0.13151 31.7 0.135157 32.4333 0.135157 33.4C0.135157 34.3667 -0.13151 35.1 -0.664843 35.6C-1.19818 36.1 -1.98151 36.35 -3.01484 36.35H-12.1148V51.55C-12.1148 54.15 -13.3648 55.45 -15.8648 55.45ZM16.5715 55.55C13.6715 55.55 11.1715 55.0333 9.07148 54C7.00482 52.9333 5.40482 51.45 4.27148 49.55C3.17148 47.6167 2.62148 45.35 2.62148 42.75C2.62148 40.2167 3.15482 38 4.22148 36.1C5.28815 34.1667 6.77148 32.6667 8.67148 31.6C10.6048 30.5 12.7882 29.95 15.2215 29.95C16.9882 29.95 18.5882 30.25 20.0215 30.85C21.4548 31.4167 22.6882 32.25 23.7215 33.35C24.7548 34.4167 25.5382 35.7333 26.0715 37.3C26.6048 38.8333 26.8715 40.55 26.8715 42.45C26.8715 43.0833 26.6715 43.5667 26.2715 43.9C25.8715 44.2 25.2882 44.35 24.5215 44.35H8.82148V40.45H21.4215L20.6215 41.15C20.6215 39.7833 20.4215 38.65 20.0215 37.75C19.6215 36.8167 19.0382 36.1167 18.2715 35.65C17.5382 35.1833 16.6215 34.95 15.5215 34.95C14.2882 34.95 13.2382 35.2333 12.3715 35.8C11.5048 36.3667 10.8382 37.1833 10.3715 38.25C9.90482 39.3167 9.67149 40.6 9.67149 42.1V42.5C9.67149 45.0333 10.2548 46.9 11.4215 48.1C12.6215 49.3 14.3882 49.9 16.7215 49.9C17.5215 49.9 18.4382 49.8 19.4715 49.6C20.5048 49.4 21.4715 49.0833 22.3715 48.65C23.1382 48.2833 23.8215 48.1667 24.4215 48.3C25.0215 48.4 25.4882 48.6667 25.8215 49.1C26.1548 49.5333 26.3382 50.0333 26.3715 50.6C26.4382 51.1667 26.3215 51.7333 26.0215 52.3C25.7215 52.8333 25.2215 53.2833 24.5215 53.65C23.3882 54.2833 22.1048 54.75 20.6715 55.05C19.2715 55.3833 17.9048 55.55 16.5715 55.55ZM35.8441 64.45C34.6108 64.45 33.6608 64.1167 32.9941 63.45C32.3608 62.8167 32.0441 61.8667 32.0441 60.6V33.85C32.0441 32.6167 32.3608 31.6833 32.9941 31.05C33.6608 30.3833 34.5775 30.05 35.7441 30.05C36.9775 30.05 37.9108 30.3833 38.5441 31.05C39.1775 31.6833 39.4941 32.6167 39.4941 33.85V37.25L38.9441 35.3C39.4441 33.7 40.4441 32.4167 41.9441 31.45C43.4775 30.45 45.2275 29.95 47.1941 29.95C49.3275 29.95 51.1941 30.4667 52.7941 31.5C54.4275 32.5333 55.6941 34 56.5941 35.9C57.4941 37.8 57.9441 40.0667 57.9441 42.7C57.9441 45.3333 57.4941 47.6167 56.5941 49.55C55.6941 51.4833 54.4441 52.9667 52.8441 54C51.2441 55.0333 49.3608 55.55 47.1941 55.55C45.2608 55.55 43.5441 55.0833 42.0441 54.15C40.5441 53.1833 39.5275 51.9333 38.9941 50.4H39.5941V60.6C39.5941 61.8667 39.2608 62.8167 38.5941 63.45C37.9608 64.1167 37.0441 64.45 35.8441 64.45ZM44.9441 49.9C46.0108 49.9 46.9441 49.6333 47.7441 49.1C48.5775 48.5667 49.2108 47.7833 49.6441 46.75C50.1108 45.6833 50.3441 44.3333 50.3441 42.7C50.3441 40.2667 49.8441 38.4833 48.8441 37.35C47.8441 36.1833 46.5441 35.6 44.9441 35.6C43.8775 35.6 42.9275 35.85 42.0941 36.35C41.2941 36.85 40.6608 37.6333 40.1941 38.7C39.7275 39.7333 39.4941 41.0667 39.4941 42.7C39.4941 45.1333 39.9941 46.95 40.9941 48.15C41.9941 49.3167 43.3108 49.9 44.9441 49.9ZM66.993 55C65.8263 55 64.9263 54.6833 64.293 54.05C63.6596 53.4167 63.343 52.5 63.343 51.3V33.85C63.343 32.5833 63.6596 31.6333 64.293 31C64.9596 30.3667 65.9096 30.05 67.143 30.05C68.343 30.05 69.2596 30.3667 69.893 31C70.5596 31.6333 70.893 32.5833 70.893 33.85V38.25H76.793C80.093 38.25 82.5763 38.95 84.243 40.35C85.943 41.7167 86.793 43.75 86.793 46.45C86.793 48.15 86.3763 49.65 85.543 50.95C84.7096 52.2167 83.543 53.2167 82.043 53.95C80.5763 54.65 78.8263 55 76.793 55H66.993ZM70.893 50.15H75.493C76.8596 50.15 77.9263 49.85 78.693 49.25C79.493 48.65 79.893 47.75 79.893 46.55C79.893 45.35 79.5096 44.4667 78.743 43.9C77.9763 43.3333 76.893 43.05 75.493 43.05H70.893V50.15ZM93.093 55.45C91.893 55.45 90.9596 55.1167 90.293 54.45C89.6596 53.7833 89.343 52.8333 89.343 51.6V33.85C89.343 32.5833 89.6596 31.6333 90.293 31C90.9596 30.3667 91.893 30.05 93.093 30.05C94.3263 30.05 95.2596 30.3667 95.893 31C96.5596 31.6333 96.893 32.5833 96.893 33.85V51.6C96.893 54.1667 95.6263 55.45 93.093 55.45ZM106.73 44.15C105.963 44.15 105.363 43.9167 104.93 43.45C104.496 42.9833 104.23 42.3 104.13 41.4L102.53 24.3C102.363 22.8 102.646 21.6 103.38 20.7C104.113 19.7667 105.23 19.3 106.73 19.3C108.163 19.3 109.246 19.7667 109.98 20.7C110.713 21.6 110.996 22.8 110.83 24.3L109.23 41.4C109.13 42.3 108.863 42.9833 108.43 43.45C108.03 43.9167 107.463 44.15 106.73 44.15ZM106.73 55.25C105.396 55.25 104.33 54.85 103.53 54.05C102.763 53.25 102.38 52.2167 102.38 50.95C102.38 49.7167 102.763 48.7167 103.53 47.95C104.33 47.15 105.396 46.75 106.73 46.75C108.063 46.75 109.096 47.15 109.83 47.95C110.596 48.7167 110.98 49.7167 110.98 50.95C110.98 52.2167 110.596 53.25 109.83 54.05C109.096 54.85 108.063 55.25 106.73 55.25Z" fill="#FF5C00"/>
<rect x="-1014" y="-174" width="1440" height="780" fill="black" fill-opacity="0.8"/>
<g filter="url(#filter0_d_0_1)">
<rect x="-636" y="-24" width="684" height="432" rx="24" fill="#F9F9F9"/>
<rect x="5.0752" y="5.28247" width="1" height="20" transform="rotate(-45 5.0752 5.28247)" fill="#B1B1B1"/>
<rect x="5.78223" y="19.4246" width="1" height="20" transform="rotate(-135 5.78223 19.4246)" fill="#B1B1B1"/>
</g>
</g>
<defs>
<filter id="filter0_d_0_1" x="-651" y="-39" width="714" height="462" filterUnits="userSpaceOnUse" color-interpolation-filters="sRGB">
<feFlood flood-opacity="0" result="BackgroundImageFix"/>
<feColorMatrix in="SourceAlpha" type="matrix" values="0 0 0 0 0 0 0 0 0 0 0 0 0 0 0 0 0 0 127 0" result="hardAlpha"/>
<feOffset/>
<feGaussianBlur stdDeviation="7.5"/>
<feComposite in2="hardAlpha" operator="out"/>
<feColorMatrix type="matrix" values="0 0 0 0 0 0 0 0 0 0 0 0 0 0 0 0 0 0 0.1 0"/>
<feBlend mode="normal" in2="BackgroundImageFix" result="effect1_dropShadow_0_1"/>
<feBlend mode="normal" in="SourceGraphic" in2="effect1_dropShadow_0_1" result="shape"/>
</filter>
<clipPath id="clip0_0_1">
<rect width="1440" height="780" fill="white" transform="translate(-1014 -174)"/>
</clipPath>
<clipPath id="clip1_0_1">
<rect width="1440" height="466" fill="white" transform="translate(-1014 -174)"/>
</clipPath>
</defs>
</svg>
